<svg width="32" height="32" viewBox="0 0 32 32" fill="none" xmlns="http://www.w3.org/2000/svg">
<path d="M29.9998 16.7162C29.9998 15.7382 29.9211 14.755 29.7531 13.793H16.2832V19.3328H23.9968C23.6767 21.1195 22.6482 22.7 21.1422 23.7044V27.2989H25.7442C28.4465 24.7933 29.9998 21.0931 29.9998 16.7162Z" fill="#4285F4"/>
<path d="M16.2791 30.77C20.1307 30.77 23.3788 29.4961 25.7453 27.2971L21.1434 23.7025C19.863 24.58 18.2101 25.0769 16.2844 25.0769C12.5587 25.0769 9.39985 22.5449 8.26642 19.1406H3.51758V22.8462C5.94185 27.7041 10.8796 30.77 16.2791 30.77Z" fill="#34A853"/>
<path d="M8.2627 19.1453C7.6645 17.3586 7.6645 15.4239 8.2627 13.6372V9.93164H3.51911C1.49363 13.9966 1.49363 18.7858 3.51911 22.8509L8.2627 19.1453Z" fill="#FBBC04"/>
<path d="M16.2791 7.69409C18.3151 7.66237 20.2828 8.43414 21.7573 9.85081L25.8345 5.74352C23.2528 3.30135 19.8263 1.95868 16.2791 2.00097C10.8796 2.00097 5.94185 5.0669 3.51758 9.9301L8.26117 13.6357C9.38935 10.2261 12.5535 7.69409 16.2791 7.69409Z" fill="#EA4335"/>
</svg>
